<?xml version="1.0" encoding="UTF-8"?>
<svg width="100px" height="100px" viewBox="0 0 100 100" version="1.1" xmlns="http://www.w3.org/2000/svg" xmlns:xlink="http://www.w3.org/1999/xlink">
    <title>favicon</title>
    <g id="favicon" stroke="none" stroke-width="1" fill="none" fill-rule="evenodd">
        <g id="Icon" fill="#EF3829">
            <path d="M0,0 L100,0 L100,86.71875 C100,94.0537818 94.0537818,100 86.71875,100 L13.28125,100 C5.94621817,100 0,94.0537818 0,86.71875 L0,0 Z" id="Rectangle"></path>
        </g>
        <g id="SM" transform="translate(13.476562, 66.796875)" fill="#FFFFFF">
            <path d="M66.4072661,33.203125 L66.4072661,11.6214166 C66.4072661,8.87470398 64.1724493,6.64080947 61.426659,6.64080947 C60.7395197,6.64080947 60.0846621,6.77915966 59.4888339,7.03372403 L57.0981425,0.842091534 C58.4373724,0.303448099 59.8955835,6.43041176e-13 61.426659,6.43041176e-13 C67.8451858,6.43041176e-13 73.0471533,5.20288975 73.0471533,11.6214166 L73.0471533,33.203125 L66.4072661,33.203125 Z M44.8246354,6.00408612e-13 C51.2431622,6.00408612e-13 56.4451296,5.20288975 56.4451296,11.6214166 L56.4451296,33.203125 L49.805058,33.203125 L49.805058,11.6214166 C49.805058,8.87470398 47.5702411,6.64080947 44.8244509,6.64080947 C42.0777383,6.64080947 39.8438438,8.87470398 39.8438438,11.6214166 L39.8438438,33.203125 L33.2032188,33.203125 L33.2032188,11.6214166 C33.2032188,5.20288975 38.4061085,6.00408612e-13 44.8246354,6.00408612e-13 Z M6.57252031e-14,33.203125 L6.57252031e-14,26.5623155 L16.6020237,26.5623155 C18.4347026,26.5623155 19.9224284,25.0745897 19.9224284,23.2419108 C19.9224284,21.4092319 18.4347026,19.9205837 16.6020237,19.9205837 L6.57252031e-14,19.9205837 L6.57252031e-14,13.2806966 L16.6020237,13.2806966 C22.0936042,13.2806966 26.5632379,17.7503303 26.5632379,23.2419108 C26.5632379,28.7334913 22.0936042,33.203125 16.6020237,33.203125 L6.57252031e-14,33.203125 Z M26.5623155,6.64080947 L9.9612142,6.64080947 C8.12853525,6.64080947 6.63988713,8.12669059 6.63988713,9.9612142 L0,9.9612142 C0,4.46871137 4.46963371,0 9.9612142,0 L26.5623155,0 L26.5623155,6.64080947 Z" id="Icon"></path>
        </g>
    </g>
</svg>